<?xml version="1.0" standalone="no"?><!DOCTYPE svg PUBLIC "-//W3C//DTD SVG 1.1//EN" "http://www.w3.org/Graphics/SVG/1.1/DTD/svg11.dtd"><svg t="1718114849782" class="icon" viewBox="0 0 1024 1024" version="1.1" xmlns="http://www.w3.org/2000/svg" p-id="4619" xmlns:xlink="http://www.w3.org/1999/xlink" width="256" height="256"><path d="M384 128h-64a16 16 0 0 1-16-16V16a16 16 0 0 1 16-16h64a16 16 0 0 1 16 16v96a16 16 0 0 1-16 16z m-48-32h32V32h-32v64zM256 128a16 16 0 0 1-16-16V32h-16a16 16 0 0 1 0-32h32a16 16 0 0 1 16 16v96a16 16 0 0 1-16 16zM480 128a16 16 0 0 1-16-16V32h-16a16 16 0 0 1 0-32h32a16 16 0 0 1 16 16v96a16 16 0 0 1-16 16zM608 128h-64a16 16 0 0 1-16-16V16a16 16 0 0 1 16-16h64a16 16 0 0 1 16 16v96a16 16 0 0 1-16 16z m-48-32h32V32h-32v64zM704 128a16 16 0 0 1-16-16V32h-16a16 16 0 0 1 0-32h32a16 16 0 0 1 16 16v96a16 16 0 0 1-16 16zM832 128h-64a16 16 0 0 1-16-16V16a16 16 0 0 1 16-16h64a16 16 0 0 1 16 16v96a16 16 0 0 1-16 16z m-48-32h32V32h-32v64zM928 128a16 16 0 0 1-16-16V32h-16a16 16 0 0 1 0-32h32a16 16 0 0 1 16 16v96a16 16 0 0 1-16 16zM336 288h-64a16 16 0 0 1-16-16v-96a16 16 0 0 1 16-16h64a16 16 0 0 1 16 16v96a16 16 0 0 1-16 16z m-48-32h32v-64h-32v64zM432 288a16 16 0 0 1-16-16v-80h-16a16 16 0 0 1 0-32h32a16 16 0 0 1 16 16v96a16 16 0 0 1-16 16zM560 288h-64a16 16 0 0 1-16-16v-96a16 16 0 0 1 16-16h64a16 16 0 0 1 16 16v96a16 16 0 0 1-16 16z m-48-32h32v-64h-32v64zM656 288a16 16 0 0 1-16-16v-80h-16a16 16 0 0 1 0-32h32a16 16 0 0 1 16 16v96a16 16 0 0 1-16 16zM784 288h-64a16 16 0 0 1-16-16v-96a16 16 0 0 1 16-16h64a16 16 0 0 1 16 16v96a16 16 0 0 1-16 16z m-48-32h32v-64h-32v64zM880 288a16 16 0 0 1-16-16v-80h-16a16 16 0 0 1 0-32h32a16 16 0 0 1 16 16v96a16 16 0 0 1-16 16zM1008 288h-64a16 16 0 0 1-16-16v-96a16 16 0 0 1 16-16h64a16 16 0 0 1 16 16v96a16 16 0 0 1-16 16z m-48-32h32v-64h-32v64zM384 448h-64a16 16 0 0 1-16-16v-96a16 16 0 0 1 16-16h64a16 16 0 0 1 16 16v96a16 16 0 0 1-16 16z m-48-32h32v-64h-32v64zM256 448a16 16 0 0 1-16-16v-80h-16a16 16 0 0 1 0-32h32a16 16 0 0 1 16 16v96a16 16 0 0 1-16 16zM480 448a16 16 0 0 1-16-16v-80h-16a16 16 0 0 1 0-32h32a16 16 0 0 1 16 16v96a16 16 0 0 1-16 16zM608 448h-64a16 16 0 0 1-16-16v-96a16 16 0 0 1 16-16h64a16 16 0 0 1 16 16v96a16 16 0 0 1-16 16z m-48-32h32v-64h-32v64zM704 448a16 16 0 0 1-16-16v-80h-16a16 16 0 0 1 0-32h32a16 16 0 0 1 16 16v96a16 16 0 0 1-16 16zM832 448h-64a16 16 0 0 1-16-16v-96a16 16 0 0 1 16-16h64a16 16 0 0 1 16 16v96a16 16 0 0 1-16 16z m-48-32h32v-64h-32v64zM928 448a16 16 0 0 1-16-16v-80h-16a16 16 0 0 1 0-32h32a16 16 0 0 1 16 16v96a16 16 0 0 1-16 16zM496 608h-64a16 16 0 0 1-16-16v-96a16 16 0 0 1 16-16h64a16 16 0 0 1 16 16v96a16 16 0 0 1-16 16z m-48-32h32v-64h-32v64zM368 608a16 16 0 0 1-16-16v-80h-16a16 16 0 0 1 0-32h32a16 16 0 0 1 16 16v96a16 16 0 0 1-16 16zM592 608a16 16 0 0 1-16-16v-80h-16a16 16 0 0 1 0-32h32a16 16 0 0 1 16 16v96a16 16 0 0 1-16 16zM720 608h-64a16 16 0 0 1-16-16v-96a16 16 0 0 1 16-16h64a16 16 0 0 1 16 16v96a16 16 0 0 1-16 16z m-48-32h32v-64h-32v64zM816 608a16 16 0 0 1-16-16v-80h-16a16 16 0 0 1 0-32h32a16 16 0 0 1 16 16v96a16 16 0 0 1-16 16z" fill="#1677ff" p-id="4620"></path><path d="M719.84 1023.84H304a16 16 0 0 1-16-16V896c0-23.28-10-48.16-38.08-48.16h-31.52c-57.776 0-122.4-47.888-122.4-112v-144H47.52a47.12 47.12 0 0 1-39.968-22.112 48.224 48.224 0 0 1-2.816-46.656l125.12-265.888c15.296-32.272 31.44-59.552 49.344-83.424a16 16 0 0 1 25.6 19.2c-16.608 22.144-31.664 47.616-46.032 77.904L33.68 536.736c-3.52 7.456-0.528 13.6 0.928 15.888a15.168 15.168 0 0 0 12.912 7.216H112a16 16 0 0 1 16 16v160c0 45.056 48.592 80 90.4 80h31.52C291.2 815.84 320 848.8 320 896v95.84h384.192c4.144-93.12 44-186.16 110.848-257.504 62.24-66.368 100.368-149.376 110.336-240.08 0.96-8.8 8.96-15.056 17.648-14.16a16 16 0 0 1 14.16 17.648c-10.72 97.648-51.808 187.024-118.8 258.48-65.168 69.552-102.544 161.28-102.544 251.616a16 16 0 0 1-16 16z" fill="#1677ff" p-id="4621"></path></svg>